<?xml version="1.0" standalone="no"?>
<!DOCTYPE svg PUBLIC "-//W3C//DTD SVG 20010904//EN"
 "http://www.w3.org/TR/2001/REC-SVG-20010904/DTD/svg10.dtd">
<svg version="1.0" xmlns="http://www.w3.org/2000/svg"
 width="200.000000pt" height="60.000000pt" viewBox="0 0 200.000000 60.000000"
 preserveAspectRatio="xMidYMid meet">

<g transform="translate(0.000000,60.000000) scale(0.100000,-0.100000)"
fill="#000000" stroke="none">
<path d="M390 500 l0 -39 -97 -3 -98 -3 -3 -57 -3 -58 98 2 98 2 -87 3 -88 4
0 49 0 50 95 0 95 0 0 45 c0 25 -2 45 -5 45 -3 0 -5 -18 -5 -40z"/>
<path d="M370 295 c0 -24 -2 -24 -87 -27 l-88 -3 -3 -87 -3 -88 -34 0 c-19 0
-37 -5 -40 -11 -5 -7 9 -9 42 -7 l48 3 3 93 3 92 89 0 90 0 0 30 c0 17 -4 30
-10 30 -5 0 -10 -11 -10 -25z"/>
</g>
</svg>
